#include "./notes.h"

static const short silentNight[] PROGMEM = {
    NOTE_G4,
    -4,
    NOTE_A4,
    8,
    NOTE_G4,
    4,
    NOTE_E4,
    -2,
    NOTE_G4,
    -4,
    NOTE_A4,
    8,
    NOTE_G4,
    4,
    NOTE_E4,
    -2,
    NOTE_D5,
    2,
    NOTE_D5,
    4,
    NOTE_B4,
    -2,
    NOTE_C5,
    2,
    NOTE_C5,
    4,
    NOTE_G4,
    -2,

    NOTE_A4,
    2,
    NOTE_A4,
    4,
    NOTE_C5,
    -4,
    NOTE_B4,
    8,
    NOTE_A4,
    4,
    NOTE_G4,
    -4,
    NOTE_A4,
    8,
    NOTE_G4,
    4,
    NOTE_E4,
    -2,
    NOTE_A4,
    2,
    NOTE_A4,
    4,
    NOTE_C5,
    -4,
    NOTE_B4,
    8,
    NOTE_A4,
    4,
    NOTE_G4,
    -4,
    NOTE_A4,
    8,
    NOTE_G4,
    4,
    NOTE_E4,
    -2,

    NOTE_D5,
    2,
    NOTE_D5,
    4,
    NOTE_F5,
    -4,
    NOTE_D5,
    8,
    NOTE_B4,
    4,
    NOTE_C5,
    -2,
    NOTE_E5,
    -2,
    NOTE_C5,
    4,
    NOTE_G4,
    4,
    NOTE_E4,
    4,
    NOTE_G4,
    -4,
    NOTE_F4,
    8,
    NOTE_D4,
    4,
    NOTE_C4,
    -2,
    NOTE_C4,
    -1,
};

// static const short merryChristmas[] PROGMEM = {
//     NOTE_C5, 4,  // 1
//     NOTE_F5, 4, NOTE_F5, 8, NOTE_G5, 8, NOTE_F5, 8, NOTE_E5, 8,
//     NOTE_D5, 4, NOTE_D5, 4, NOTE_D5, 4,
//     NOTE_G5, 4, NOTE_G5, 8, NOTE_A5, 8, NOTE_G5, 8, NOTE_F5, 8,
//     NOTE_E5, 4, NOTE_C5, 4, NOTE_C5, 4,
//     NOTE_A5, 4, NOTE_A5, 8, NOTE_AS5, 8, NOTE_A5, 8, NOTE_G5, 8,
//     NOTE_F5, 4, NOTE_D5, 4, NOTE_C5, 8, NOTE_C5, 8,
//     NOTE_D5, 4, NOTE_G5, 4, NOTE_E5, 4,

//     NOTE_F5, 2, NOTE_C5, 4,  // 8
//     NOTE_F5, 4, NOTE_F5, 8, NOTE_G5, 8, NOTE_F5, 8, NOTE_E5, 8,
//     NOTE_D5, 4, NOTE_D5, 4, NOTE_D5, 4,
//     NOTE_G5, 4, NOTE_G5, 8, NOTE_A5, 8, NOTE_G5, 8, NOTE_F5, 8,
//     NOTE_E5, 4, NOTE_C5, 4, NOTE_C5, 4,
//     NOTE_A5, 4, NOTE_A5, 8, NOTE_AS5, 8, NOTE_A5, 8, NOTE_G5, 8,
//     NOTE_F5, 4, NOTE_D5, 4, NOTE_C5, 8, NOTE_C5, 8,
//     NOTE_D5, 4, NOTE_G5, 4, NOTE_E5, 4,
//     NOTE_F5, 2, NOTE_C5, 4,

//     NOTE_F5, 4, NOTE_F5, 4, NOTE_F5, 4,  // 17
//     NOTE_E5, 2, NOTE_E5, 4,
//     NOTE_F5, 4, NOTE_E5, 4, NOTE_D5, 4,
//     NOTE_C5, 2, NOTE_A5, 4,
//     NOTE_AS5, 4, NOTE_A5, 4, NOTE_G5, 4,
//     NOTE_C6, 4, NOTE_C5, 4, NOTE_C5, 8, NOTE_C5, 8,
//     NOTE_D5, 4, NOTE_G5, 4, NOTE_E5, 4,
//     NOTE_F5, 2, NOTE_C5, 4,
//     NOTE_F5, 4, NOTE_F5, 8, NOTE_G5, 8, NOTE_F5, 8, NOTE_E5, 8,
//     NOTE_D5, 4, NOTE_D5, 4, NOTE_D5, 4,

//     NOTE_G5, 4, NOTE_G5, 8, NOTE_A5, 8, NOTE_G5, 8, NOTE_F5, 8,  // 27
//     NOTE_E5, 4, NOTE_C5, 4, NOTE_C5, 4,
//     NOTE_A5, 4, NOTE_A5, 8, NOTE_AS5, 8, NOTE_A5, 8, NOTE_G5, 8,
//     NOTE_F5, 4, NOTE_D5, 4, NOTE_C5, 8, NOTE_C5, 8,
//     NOTE_D5, 4, NOTE_G5, 4, NOTE_E5, 4,
//     NOTE_F5, 2, NOTE_C5, 4,
//     NOTE_F5, 4, NOTE_F5, 4, NOTE_F5, 4,
//     NOTE_E5, 2, NOTE_E5, 4,
//     NOTE_F5, 4, NOTE_E5, 4, NOTE_D5, 4,

//     NOTE_C5, 2, NOTE_A5, 4,  // 36
//     NOTE_AS5, 4, NOTE_A5, 4, NOTE_G5, 4,
//     NOTE_C6, 4, NOTE_C5, 4, NOTE_C5, 8, NOTE_C5, 8,
//     NOTE_D5, 4, NOTE_G5, 4, NOTE_E5, 4,
//     NOTE_F5, 2, NOTE_C5, 4,
//     NOTE_F5, 4, NOTE_F5, 8, NOTE_G5, 8, NOTE_F5, 8, NOTE_E5, 8,
//     NOTE_D5, 4, NOTE_D5, 4, NOTE_D5, 4,
//     NOTE_G5, 4, NOTE_G5, 8, NOTE_A5, 8, NOTE_G5, 8, NOTE_F5, 8,
//     NOTE_E5, 4, NOTE_C5, 4, NOTE_C5, 4,

//     NOTE_A5, 4, NOTE_A5, 8, NOTE_AS5, 8, NOTE_A5, 8, NOTE_G5, 8,  // 45
//     NOTE_F5, 4, NOTE_D5, 4, NOTE_C5, 8, NOTE_C5, 8,
//     NOTE_D5, 4, NOTE_G5, 4, NOTE_E5, 4,
//     NOTE_F5, 2, NOTE_C5, 4,
//     NOTE_F5, 4, NOTE_F5, 8, NOTE_G5, 8, NOTE_F5, 8, NOTE_E5, 8,
//     NOTE_D5, 4, NOTE_D5, 4, NOTE_D5, 4,
//     NOTE_G5, 4, NOTE_G5, 8, NOTE_A5, 8, NOTE_G5, 8, NOTE_F5, 8,
//     NOTE_E5, 4, NOTE_C5, 4, NOTE_C5, 4,

//     NOTE_A5, 4, NOTE_A5, 8, NOTE_AS5, 8, NOTE_A5, 8, NOTE_G5, 8,  // 53
//     NOTE_F5, 4, NOTE_D5, 4, NOTE_C5, 8, NOTE_C5, 8,
//     NOTE_D5, 4, NOTE_G5, 4, NOTE_E5, 4,
//     NOTE_F5, 2, REST, 4};